G04*
G04 #@! TF.GenerationSoftware,Altium Limited,Altium Designer,20.1.14 (287)*
G04*
G04 Layer_Color=65535*
%FSLAX24Y24*%
%MOIN*%
G70*
G04*
G04 #@! TF.SameCoordinates,2A1C6D17-A087-48F9-B170-56E9D240733E*
G04*
G04*
G04 #@! TF.FilePolarity,Positive*
G04*
G01*
G75*
%ADD10C,0.0050*%
D10*
X-5744Y7000D02*
Y7319D01*
X-232D01*
Y7000D02*
Y7319D01*
X-5744Y2268D02*
X-232D01*
X-5744Y7000D02*
X-232D01*
X-5744Y2268D02*
Y4350D01*
Y6000D02*
Y7000D01*
X-232Y2268D02*
Y4350D01*
Y6000D02*
Y7000D01*
X-2150Y852D02*
Y1009D01*
X-2036Y923D01*
Y966D01*
X-2021Y994D01*
X-2007Y1009D01*
X-1964Y1023D01*
X-1936D01*
X-1893Y1009D01*
X-1864Y980D01*
X-1850Y937D01*
Y895D01*
X-1864Y852D01*
X-1879Y837D01*
X-1907Y823D01*
X-2050Y1104D02*
X-2036Y1090D01*
X-2021Y1104D01*
X-2036Y1119D01*
X-2050Y1104D01*
X-1879D02*
X-1864Y1090D01*
X-1850Y1104D01*
X-1864Y1119D01*
X-1879Y1104D01*
X-2079Y1399D02*
X-2107Y1384D01*
X-2136Y1356D01*
X-2150Y1327D01*
Y1270D01*
X-2136Y1242D01*
X-2107Y1213D01*
X-2079Y1199D01*
X-2036Y1184D01*
X-1964D01*
X-1921Y1199D01*
X-1893Y1213D01*
X-1864Y1242D01*
X-1850Y1270D01*
Y1327D01*
X-1864Y1356D01*
X-1893Y1384D01*
X-1921Y1399D01*
X-1964D01*
Y1327D02*
Y1399D01*
X-2150Y1467D02*
X-1850D01*
X-2150D02*
X-1850Y1667D01*
X-2150D02*
X-1850D01*
X-2150Y1750D02*
X-1850D01*
X-2150D02*
Y1850D01*
X-2136Y1893D01*
X-2107Y1921D01*
X-2079Y1936D01*
X-2036Y1950D01*
X-1964D01*
X-1921Y1936D01*
X-1893Y1921D01*
X-1864Y1893D01*
X-1850Y1850D01*
Y1750D01*
X-4150Y919D02*
Y776D01*
X-4021Y762D01*
X-4036Y776D01*
X-4050Y819D01*
Y862D01*
X-4036Y905D01*
X-4007Y933D01*
X-3964Y947D01*
X-3936D01*
X-3893Y933D01*
X-3864Y905D01*
X-3850Y862D01*
Y819D01*
X-3864Y776D01*
X-3879Y762D01*
X-3907Y747D01*
X-4050Y1029D02*
X-4036Y1014D01*
X-4021Y1029D01*
X-4036Y1043D01*
X-4050Y1029D01*
X-3879D02*
X-3864Y1014D01*
X-3850Y1029D01*
X-3864Y1043D01*
X-3879Y1029D01*
X-4079Y1323D02*
X-4107Y1309D01*
X-4136Y1280D01*
X-4150Y1252D01*
Y1194D01*
X-4136Y1166D01*
X-4107Y1137D01*
X-4079Y1123D01*
X-4036Y1109D01*
X-3964D01*
X-3921Y1123D01*
X-3893Y1137D01*
X-3864Y1166D01*
X-3850Y1194D01*
Y1252D01*
X-3864Y1280D01*
X-3893Y1309D01*
X-3921Y1323D01*
X-4150Y1407D02*
X-3850D01*
Y1579D01*
X-4150Y1611D02*
X-3850D01*
X-4150Y1811D02*
X-3950Y1611D01*
X-4021Y1683D02*
X-3850Y1811D01*
X-4093Y1879D02*
X-4107Y1907D01*
X-4150Y1950D01*
X-3850D01*
X-6150Y835D02*
X-5850Y692D01*
X-6150Y635D02*
Y835D01*
X-6050Y916D02*
X-6036Y902D01*
X-6021Y916D01*
X-6036Y930D01*
X-6050Y916D01*
X-5879D02*
X-5864Y902D01*
X-5850Y916D01*
X-5864Y930D01*
X-5879Y916D01*
X-6107Y1196D02*
X-6136Y1167D01*
X-6150Y1124D01*
Y1067D01*
X-6136Y1024D01*
X-6107Y996D01*
X-6079D01*
X-6050Y1010D01*
X-6036Y1024D01*
X-6021Y1053D01*
X-5993Y1139D01*
X-5979Y1167D01*
X-5964Y1182D01*
X-5936Y1196D01*
X-5893D01*
X-5864Y1167D01*
X-5850Y1124D01*
Y1067D01*
X-5864Y1024D01*
X-5893Y996D01*
X-6150Y1263D02*
X-5850D01*
X-6150Y1463D02*
X-5850D01*
X-6007Y1263D02*
Y1463D01*
X-6150Y1546D02*
X-5850D01*
Y1717D01*
X-6150Y1750D02*
X-5850D01*
X-6150D02*
Y1850D01*
X-6136Y1893D01*
X-6107Y1921D01*
X-6079Y1936D01*
X-6036Y1950D01*
X-5964D01*
X-5921Y1936D01*
X-5893Y1921D01*
X-5864Y1893D01*
X-5850Y1850D01*
Y1750D01*
X-93Y763D02*
X-107Y792D01*
X-150Y835D01*
X150D01*
X-50Y997D02*
X-36Y983D01*
X-21Y997D01*
X-36Y1012D01*
X-50Y997D01*
X121D02*
X136Y983D01*
X150Y997D01*
X136Y1012D01*
X121Y997D01*
X-150Y1077D02*
X150D01*
X-150D02*
Y1177D01*
X-136Y1220D01*
X-107Y1249D01*
X-79Y1263D01*
X-36Y1277D01*
X36D01*
X79Y1263D01*
X107Y1249D01*
X136Y1220D01*
X150Y1177D01*
Y1077D01*
Y1573D02*
X-150Y1459D01*
X150Y1344D01*
X50Y1387D02*
Y1530D01*
X-150Y1743D02*
X150D01*
X-150Y1643D02*
Y1843D01*
X-93Y1879D02*
X-107Y1907D01*
X-150Y1950D01*
X150D01*
X-5107Y806D02*
X-5136Y792D01*
X-5150Y749D01*
Y720D01*
X-5136Y677D01*
X-5093Y649D01*
X-5021Y635D01*
X-4950D01*
X-4893Y649D01*
X-4864Y677D01*
X-4850Y720D01*
Y735D01*
X-4864Y777D01*
X-4893Y806D01*
X-4936Y820D01*
X-4950D01*
X-4993Y806D01*
X-5021Y777D01*
X-5036Y735D01*
Y720D01*
X-5021Y677D01*
X-4993Y649D01*
X-4950Y635D01*
X-5050Y900D02*
X-5036Y886D01*
X-5021Y900D01*
X-5036Y915D01*
X-5050Y900D01*
X-4879D02*
X-4864Y886D01*
X-4850Y900D01*
X-4864Y915D01*
X-4879Y900D01*
X-5079Y1194D02*
X-5107Y1180D01*
X-5136Y1152D01*
X-5150Y1123D01*
Y1066D01*
X-5136Y1037D01*
X-5107Y1009D01*
X-5079Y994D01*
X-5036Y980D01*
X-4964D01*
X-4921Y994D01*
X-4893Y1009D01*
X-4864Y1037D01*
X-4850Y1066D01*
Y1123D01*
X-4864Y1152D01*
X-4893Y1180D01*
X-4921Y1194D01*
X-5150Y1279D02*
X-4850D01*
Y1450D01*
X-5150Y1483D02*
X-4850D01*
X-5150Y1683D02*
X-4950Y1483D01*
X-5021Y1554D02*
X-4850Y1683D01*
X-5079Y1764D02*
X-5093D01*
X-5121Y1779D01*
X-5136Y1793D01*
X-5150Y1821D01*
Y1879D01*
X-5136Y1907D01*
X-5121Y1921D01*
X-5093Y1936D01*
X-5064D01*
X-5036Y1921D01*
X-4993Y1893D01*
X-4850Y1750D01*
Y1950D01*
X-3150Y890D02*
X-2950Y747D01*
Y962D01*
X-3150Y890D02*
X-2850D01*
X-3050Y1029D02*
X-3036Y1014D01*
X-3021Y1029D01*
X-3036Y1043D01*
X-3050Y1029D01*
X-2879D02*
X-2864Y1014D01*
X-2850Y1029D01*
X-2864Y1043D01*
X-2879Y1029D01*
X-3107Y1237D02*
X-2850D01*
X-2979Y1109D02*
Y1366D01*
X-3150Y1626D02*
Y1483D01*
X-3021Y1469D01*
X-3036Y1483D01*
X-3050Y1526D01*
Y1569D01*
X-3036Y1611D01*
X-3007Y1640D01*
X-2964Y1654D01*
X-2936D01*
X-2893Y1640D01*
X-2864Y1611D01*
X-2850Y1569D01*
Y1526D01*
X-2864Y1483D01*
X-2879Y1469D01*
X-2907Y1454D01*
X-3150Y1721D02*
X-2850Y1836D01*
X-3150Y1950D02*
X-2850Y1836D01*
X-1079Y602D02*
X-1093D01*
X-1121Y616D01*
X-1136Y630D01*
X-1150Y659D01*
Y716D01*
X-1136Y745D01*
X-1121Y759D01*
X-1093Y773D01*
X-1064D01*
X-1036Y759D01*
X-993Y730D01*
X-850Y587D01*
Y787D01*
X-1050Y869D02*
X-1036Y855D01*
X-1021Y869D01*
X-1036Y883D01*
X-1050Y869D01*
X-879D02*
X-864Y855D01*
X-850Y869D01*
X-864Y883D01*
X-879Y869D01*
X-1150Y949D02*
X-850D01*
X-1150D02*
Y1049D01*
X-1136Y1092D01*
X-1107Y1120D01*
X-1079Y1134D01*
X-1036Y1149D01*
X-964D01*
X-921Y1134D01*
X-893Y1120D01*
X-864Y1092D01*
X-850Y1049D01*
Y949D01*
Y1444D02*
X-1150Y1330D01*
X-850Y1216D01*
X-950Y1259D02*
Y1402D01*
X-1150Y1614D02*
X-850D01*
X-1150Y1514D02*
Y1714D01*
X-1079Y1764D02*
X-1093D01*
X-1121Y1779D01*
X-1136Y1793D01*
X-1150Y1821D01*
Y1879D01*
X-1136Y1907D01*
X-1121Y1921D01*
X-1093Y1936D01*
X-1064D01*
X-1036Y1921D01*
X-993Y1893D01*
X-850Y1750D01*
Y1950D01*
M02*
