G04*
G04 #@! TF.GenerationSoftware,Altium Limited,Altium Designer,20.1.14 (287)*
G04*
G04 Layer_Color=7585984*
%FSLAX24Y24*%
%MOIN*%
G70*
G04*
G04 #@! TF.SameCoordinates,2A1C6D17-A087-48F9-B170-56E9D240733E*
G04*
G04*
G04 #@! TF.FilePolarity,Positive*
G04*
G01*
G75*
%ADD10C,0.0050*%
%ADD23C,0.0157*%
%ADD24C,0.0100*%
D10*
X-1186Y2111D02*
Y1883D01*
X-1172Y1840D01*
X-1158Y1826D01*
X-1129Y1811D01*
X-1086D01*
X-1058Y1826D01*
X-1186Y2069D02*
X-1158Y2097D01*
X-1129Y2111D01*
X-1086D01*
X-1058Y2097D01*
X-1029Y2069D01*
X-1015Y2026D01*
Y1997D01*
X-1029Y1954D01*
X-1058Y1926D01*
X-1086Y1911D01*
X-1129D01*
X-1158Y1926D01*
X-1186Y1954D01*
X-1295Y2211D02*
X-1309Y2197D01*
X-1323Y2211D01*
X-1309Y2226D01*
X-1295Y2211D01*
X-1309Y2111D02*
Y1911D01*
X-1419Y2211D02*
Y1969D01*
X-1433Y1926D01*
X-1462Y1911D01*
X-1490D01*
X-1376Y2111D02*
X-1476D01*
X-1533Y2211D02*
Y1911D01*
Y2054D02*
X-1576Y2097D01*
X-1605Y2111D01*
X-1647D01*
X-1676Y2097D01*
X-1690Y2054D01*
Y1911D01*
X-1769Y2111D02*
Y1969D01*
X-1783Y1926D01*
X-1812Y1911D01*
X-1855D01*
X-1883Y1926D01*
X-1926Y1969D01*
Y2111D02*
Y1911D01*
X-2005Y2211D02*
Y1911D01*
Y2069D02*
X-2033Y2097D01*
X-2062Y2111D01*
X-2104D01*
X-2133Y2097D01*
X-2162Y2069D01*
X-2176Y2026D01*
Y1997D01*
X-2162Y1954D01*
X-2133Y1926D01*
X-2104Y1911D01*
X-2062D01*
X-2033Y1926D01*
X-2005Y1954D01*
X-2254Y1940D02*
X-2240Y1926D01*
X-2254Y1911D01*
X-2269Y1926D01*
X-2254Y1940D01*
X-2506Y2069D02*
X-2477Y2097D01*
X-2449Y2111D01*
X-2406D01*
X-2377Y2097D01*
X-2349Y2069D01*
X-2334Y2026D01*
Y1997D01*
X-2349Y1954D01*
X-2377Y1926D01*
X-2406Y1911D01*
X-2449D01*
X-2477Y1926D01*
X-2506Y1954D01*
X-2642Y2111D02*
X-2613Y2097D01*
X-2584Y2069D01*
X-2570Y2026D01*
Y1997D01*
X-2584Y1954D01*
X-2613Y1926D01*
X-2642Y1911D01*
X-2684D01*
X-2713Y1926D01*
X-2741Y1954D01*
X-2756Y1997D01*
Y2026D01*
X-2741Y2069D01*
X-2713Y2097D01*
X-2684Y2111D01*
X-2642D01*
X-2821D02*
Y1911D01*
Y2054D02*
X-2864Y2097D01*
X-2893Y2111D01*
X-2936D01*
X-2964Y2097D01*
X-2979Y2054D01*
Y1911D01*
Y2054D02*
X-3021Y2097D01*
X-3050Y2111D01*
X-3093D01*
X-3121Y2097D01*
X-3136Y2054D01*
Y1911D01*
X-3230Y1869D02*
X-3430Y2211D01*
X-3621Y2111D02*
Y1911D01*
Y2069D02*
X-3593Y2097D01*
X-3564Y2111D01*
X-3521D01*
X-3493Y2097D01*
X-3464Y2069D01*
X-3450Y2026D01*
Y1997D01*
X-3464Y1954D01*
X-3493Y1926D01*
X-3521Y1911D01*
X-3564D01*
X-3593Y1926D01*
X-3621Y1954D01*
X-3873Y2111D02*
Y1911D01*
Y2069D02*
X-3844Y2097D01*
X-3816Y2111D01*
X-3773D01*
X-3744Y2097D01*
X-3716Y2069D01*
X-3701Y2026D01*
Y1997D01*
X-3716Y1954D01*
X-3744Y1926D01*
X-3773Y1911D01*
X-3816D01*
X-3844Y1926D01*
X-3873Y1954D01*
X-3953Y2211D02*
Y1911D01*
X-4095Y2111D02*
X-3953Y1969D01*
X-4010Y2026D02*
X-4110Y1911D01*
X-4328Y2111D02*
Y1911D01*
Y2069D02*
X-4300Y2097D01*
X-4271Y2111D01*
X-4228D01*
X-4200Y2097D01*
X-4171Y2069D01*
X-4157Y2026D01*
Y1997D01*
X-4171Y1954D01*
X-4200Y1926D01*
X-4228Y1911D01*
X-4271D01*
X-4300Y1926D01*
X-4328Y1954D01*
X-4451Y2211D02*
Y1969D01*
X-4465Y1926D01*
X-4494Y1911D01*
X-4523D01*
X-4408Y2111D02*
X-4508D01*
X-4722D02*
X-4565Y1911D01*
Y2111D02*
X-4722D01*
X-4565Y1911D02*
X-4722D01*
X-4814Y2211D02*
X-4971D01*
X-4885Y2097D01*
X-4928D01*
X-4957Y2083D01*
X-4971Y2069D01*
X-4985Y2026D01*
Y1997D01*
X-4971Y1954D01*
X-4942Y1926D01*
X-4900Y1911D01*
X-4857D01*
X-4814Y1926D01*
X-4800Y1940D01*
X-4785Y1969D01*
X-704Y1274D02*
X-904Y1617D01*
X-924D02*
Y1317D01*
Y1617D02*
X-1038Y1317D01*
X-1153Y1617D02*
X-1038Y1317D01*
X-1153Y1617D02*
Y1317D01*
X-1267Y1617D02*
X-1281Y1603D01*
X-1295Y1617D01*
X-1281Y1631D01*
X-1267Y1617D01*
X-1281Y1517D02*
Y1317D01*
X-1348Y1517D02*
Y1317D01*
Y1460D02*
X-1391Y1503D01*
X-1420Y1517D01*
X-1462D01*
X-1491Y1503D01*
X-1505Y1460D01*
Y1317D01*
X-1612Y1617D02*
X-1627Y1603D01*
X-1641Y1617D01*
X-1627Y1631D01*
X-1612Y1617D01*
X-1627Y1517D02*
Y1317D01*
X-1694Y1446D02*
X-1951D01*
X-2039Y1617D02*
Y1317D01*
Y1617D02*
X-2139D01*
X-2182Y1603D01*
X-2211Y1574D01*
X-2225Y1546D01*
X-2239Y1503D01*
Y1431D01*
X-2225Y1389D01*
X-2211Y1360D01*
X-2182Y1332D01*
X-2139Y1317D01*
X-2039D01*
X-2307Y1617D02*
Y1317D01*
X-2369Y1617D02*
Y1317D01*
Y1617D02*
X-2569Y1317D01*
Y1617D02*
Y1317D01*
X-2652Y1446D02*
X-2909D01*
X-3169Y1574D02*
X-3155Y1603D01*
X-3112Y1617D01*
X-3084D01*
X-3041Y1603D01*
X-3012Y1560D01*
X-2998Y1489D01*
Y1417D01*
X-3012Y1360D01*
X-3041Y1332D01*
X-3084Y1317D01*
X-3098D01*
X-3141Y1332D01*
X-3169Y1360D01*
X-3184Y1403D01*
Y1417D01*
X-3169Y1460D01*
X-3141Y1489D01*
X-3098Y1503D01*
X-3084D01*
X-3041Y1489D01*
X-3012Y1460D01*
X-2998Y1417D01*
X-3249Y1446D02*
X-3506D01*
X-3595Y1617D02*
Y1317D01*
Y1617D02*
X-3723D01*
X-3766Y1603D01*
X-3781Y1589D01*
X-3795Y1560D01*
Y1531D01*
X-3781Y1503D01*
X-3766Y1489D01*
X-3723Y1474D01*
X-3595D02*
X-3723D01*
X-3766Y1460D01*
X-3781Y1446D01*
X-3795Y1417D01*
Y1374D01*
X-3781Y1346D01*
X-3766Y1332D01*
X-3723Y1317D01*
X-3595D01*
X-3862Y1517D02*
Y1317D01*
Y1431D02*
X-3876Y1474D01*
X-3905Y1503D01*
X-3933Y1517D01*
X-3976D01*
X-4003Y1431D02*
X-4175D01*
Y1460D01*
X-4160Y1489D01*
X-4146Y1503D01*
X-4118Y1517D01*
X-4075D01*
X-4046Y1503D01*
X-4018Y1474D01*
X-4003Y1431D01*
Y1403D01*
X-4018Y1360D01*
X-4046Y1332D01*
X-4075Y1317D01*
X-4118D01*
X-4146Y1332D01*
X-4175Y1360D01*
X-4410Y1517D02*
Y1317D01*
Y1474D02*
X-4382Y1503D01*
X-4353Y1517D01*
X-4310D01*
X-4282Y1503D01*
X-4253Y1474D01*
X-4239Y1431D01*
Y1403D01*
X-4253Y1360D01*
X-4282Y1332D01*
X-4310Y1317D01*
X-4353D01*
X-4382Y1332D01*
X-4410Y1360D01*
X-4490Y1617D02*
Y1317D01*
X-4633Y1517D02*
X-4490Y1374D01*
X-4548Y1431D02*
X-4647Y1317D01*
X-4766Y1517D02*
X-4737Y1503D01*
X-4709Y1474D01*
X-4695Y1431D01*
Y1403D01*
X-4709Y1360D01*
X-4737Y1332D01*
X-4766Y1317D01*
X-4809D01*
X-4837Y1332D01*
X-4866Y1360D01*
X-4880Y1403D01*
Y1431D01*
X-4866Y1474D01*
X-4837Y1503D01*
X-4809Y1517D01*
X-4766D01*
X-4946D02*
Y1374D01*
X-4960Y1332D01*
X-4989Y1317D01*
X-5032D01*
X-5060Y1332D01*
X-5103Y1374D01*
Y1517D02*
Y1317D01*
X-5225Y1617D02*
Y1374D01*
X-5239Y1332D01*
X-5267Y1317D01*
X-5296D01*
X-5182Y1517D02*
X-5282D01*
D23*
X-2398Y3250D02*
G03*
X-2398Y3250I-79J0D01*
G01*
D24*
X-6550Y-540D02*
Y530D01*
Y-540D02*
X550D01*
X-6550Y530D02*
X550D01*
Y-540D02*
Y530D01*
M02*
